<?xml version="1.0" encoding="UTF-8"?>
<svg version="1.1" xmlns="http://www.w3.org/2000/svg" width="562" height="125">
<path d="M0 0 C6.00990162 -0.0749604 12.01952253 -0.12897975 18.02978516 -0.16479492 C20.06824493 -0.17974813 22.10667329 -0.20011811 24.14501953 -0.22631836 C43.81012971 -0.47249426 62.29085234 0.52568885 77.5 14.6875 C86.75806422 24.72214526 90.56935109 36.66279851 90.24609375 50.14453125 C89.12608061 63.14023922 83.81003194 73.08526418 74.4296875 82.0234375 C64.67190221 89.9614429 54.43357452 91.30277656 42.28515625 91.1953125 C41.07427841 91.1924826 39.86340057 91.18965271 38.61582947 91.18673706 C34.76461732 91.1755803 30.91364136 91.15048355 27.0625 91.125 C24.44466483 91.1149644 21.82682599 91.10583956 19.20898438 91.09765625 C12.80590958 91.07565567 6.40297167 91.04222276 0 91 C0 90.34 0 89.68 0 89 C1.11375 88.7525 2.2275 88.505 3.375 88.25 C6.93695478 87.40214389 6.93695478 87.40214389 8.21138 85.37658691 C9.30039207 82.09473781 9.24667729 79.18245085 9.24291992 75.72460938 C9.24481827 74.99893265 9.24671661 74.27325592 9.24867249 73.52558899 C9.25237119 71.13153206 9.24168857 68.73777988 9.23046875 66.34375 C9.22927625 64.67753129 9.22882394 63.01131189 9.2290802 61.34509277 C9.22751687 57.85485621 9.21923891 54.36472243 9.20581055 50.87451172 C9.188821 46.40219099 9.18499634 41.92998319 9.18575573 37.45763397 C9.18548371 34.01754683 9.17999727 30.57748434 9.17275429 27.1374054 C9.16957374 25.48838996 9.16760165 23.83937173 9.16686058 22.19035339 C9.16469051 19.8853175 9.15593183 17.58040086 9.14526367 15.27539062 C9.14145187 13.96397095 9.13764008 12.65255127 9.13371277 11.3013916 C9.10575076 7.8476197 9.10575076 7.8476197 8 4 C5.36 3.34 2.72 2.68 0 2 C0 1.34 0 0.68 0 0 Z M21 5 C20.88410829 14.95307411 20.79528581 24.9059875 20.74093914 34.85959911 C20.71485417 39.48159315 20.6794766 44.10312531 20.62280273 48.72485352 C20.56844311 53.18581488 20.53857118 57.64633223 20.52561378 62.10759926 C20.51638093 63.80889183 20.49835087 65.51016031 20.47134972 67.21126366 C20.43500496 69.59604615 20.43005663 71.97899842 20.43237305 74.36401367 C20.41439667 75.06604416 20.39642029 75.76807465 20.37789917 76.49137878 C20.41831755 80.34169618 20.91461622 81.89463128 23.37141418 84.9264679 C29.44698928 89.71912102 38.65786597 88.34176797 46.02734375 87.76171875 C56.33777437 86.44803454 64.00483678 82.1754616 70.53515625 74.0625 C77.91662785 63.66938798 79.44155457 51.54574269 77.34765625 39.1328125 C74.90494712 27.37561249 70.46132024 17.60383853 60.40234375 10.43359375 C52.27114585 5.58131793 44.45638446 3.82266638 35.0625 3.875 C34.02706055 3.86919922 34.02706055 3.86919922 32.97070312 3.86328125 C28.86633609 3.87106204 25.03257029 4.28044684 21 5 Z " fill="#FFFEFE" transform="translate(128,17)"/>
<path d="M0 0 C6.00990162 -0.0749604 12.01952253 -0.12897975 18.02978516 -0.16479492 C20.06824493 -0.17974813 22.10667329 -0.20011811 24.14501953 -0.22631836 C43.35419008 -0.46678662 61.90932596 0.38431448 76.9375 14.0625 C86.52369374 24.57869761 90.50549109 37.49259352 89.875 51.5625 C88.45660612 65.19212399 82.54904515 74.46935734 72.296875 83.2421875 C63.01407439 90.34637164 53.65655662 91.29590311 42.28515625 91.1953125 C41.07427841 91.1924826 39.86340057 91.18965271 38.61582947 91.18673706 C34.76461732 91.1755803 30.91364136 91.15048355 27.0625 91.125 C24.44466483 91.1149644 21.82682599 91.10583956 19.20898438 91.09765625 C12.80590958 91.07565567 6.40297167 91.04222276 0 91 C0 90.34 0 89.68 0 89 C1.11375 88.773125 2.2275 88.54625 3.375 88.3125 C7.06725634 87.41982173 7.06725634 87.41982173 8.20939636 84.86730957 C9.16115651 81.4155281 9.261666 78.39361067 9.2746582 74.81054688 C9.27976913 74.10583755 9.28488007 73.40112823 9.29014587 72.67506409 C9.30399433 70.35620525 9.30308899 68.03764515 9.30078125 65.71875 C9.30467027 64.10119517 9.30900536 62.48364136 9.31376648 60.86608887 C9.32121807 57.48019089 9.32094474 54.09439721 9.31567383 50.70849609 C9.3098749 46.37404841 9.32682532 42.04002745 9.3500185 37.70565033 C9.36476279 34.36673496 9.3656267 31.02792226 9.36250877 27.6889801 C9.36302145 26.09102024 9.36824915 24.49305455 9.37832069 22.89512634 C9.39068418 20.65962091 9.38389516 18.42494568 9.37231445 16.18945312 C9.37294388 14.91880005 9.3735733 13.64814697 9.3742218 12.33898926 C8.96907394 8.72406263 8.2360481 6.84543151 6 4 C2.92438754 2.64019119 2.92438754 2.64019119 0 2 C0 1.34 0 0.68 0 0 Z M20 5 C19.95363723 14.56203189 19.91811075 24.12402502 19.89637566 33.68614483 C19.88594334 38.12633424 19.87179418 42.56644668 19.84912109 47.0065918 C19.82737309 51.29245064 19.81542722 55.5782355 19.81024551 59.86414528 C19.80655328 61.49839251 19.79934326 63.13263574 19.78853989 64.76685143 C19.77399889 67.05779105 19.77202314 69.34842586 19.77294922 71.6394043 C19.768508 72.94290329 19.76406677 74.24640228 19.75949097 75.58940125 C20.05793883 79.82161613 20.72572638 82.76966685 23.8125 85.75 C31.68027419 90.24587096 43.59768077 88.40956368 52.109375 86.81640625 C61.20077029 84.24870136 67.49986916 78.60605914 72.40234375 70.75390625 C78.92973455 58.92892291 79.24081327 45.63608786 75.75 32.75 C72.13394412 22.05754768 66.1528088 13.45873365 56 8.125 C44.31187983 2.88123612 32.51293548 3.11888463 20 5 Z " fill="#FFFEFE" transform="translate(455,17)"/>
<path d="M0 0 C15.67428148 -1.91829595 15.67428148 -1.91829595 20.93261719 1.11474609 C24.40689786 4.06033188 27.09597317 7.62294191 29.75048828 11.30322266 C31.5239454 13.71149288 33.52931127 15.87208754 35.5625 18.0625 C36.27535156 18.85785156 36.98820312 19.65320313 37.72265625 20.47265625 C40.29809775 23.33082203 42.89685764 26.16710261 45.5 29 C49.58920545 33.45061978 53.64369115 37.93078117 57.6796875 42.4296875 C60.3107988 45.34428554 62.96660245 48.23531961 65.625 51.125 C69.19843178 55.01231016 72.73150199 58.9285228 76.18798828 62.92041016 C78.17972758 65.20626779 80.19135995 67.47350536 82.20703125 69.73828125 C82.91964111 70.53919189 83.63225098 71.34010254 84.36645508 72.1652832 C84.9055249 72.77073975 85.44459473 73.37619629 86 74 C86.0463852 65.74180433 86.08190057 57.48366329 86.10362434 49.22536945 C86.11405181 45.39051517 86.128192 41.55575017 86.15087891 37.72094727 C86.17264438 34.01863416 86.18457643 30.31640681 86.18975449 26.61403465 C86.1934436 25.20307249 86.20064754 23.7921149 86.21146011 22.38118935 C86.22602342 20.4017153 86.22681734 18.42215456 86.22705078 16.44262695 C86.231492 15.31677689 86.23593323 14.19092682 86.24050903 13.03096008 C85.99478255 9.93424826 85.39402937 7.76438992 84 5 C82.31953843 3.78473015 82.31953843 3.78473015 80.375 3.1875 C79.26125 2.795625 78.1475 2.40375 77 2 C77 1.34 77 0.68 77 0 C84.92 0 92.84 0 101 0 C101 0.66 101 1.32 101 2 C99.88625 2.433125 98.7725 2.86625 97.625 3.3125 C93.82487666 4.69911119 93.82487666 4.69911119 92 8 C91.78672725 10.7767644 91.68871764 13.45657868 91.68115234 16.23510742 C91.67110672 17.07435257 91.6610611 17.91359772 91.65071106 18.77827454 C91.6198049 21.55399893 91.60282333 24.32962656 91.5859375 27.10546875 C91.56723183 29.02933082 91.54765887 30.95318464 91.5272522 32.87702942 C91.47586153 37.94207906 91.43627294 43.00715532 91.39910889 48.07232666 C91.35911268 53.24034243 91.30800037 58.40824681 91.2578125 63.57617188 C91.16097112 73.71736974 91.07659263 83.85863041 91 94 C88.02018023 92.57513437 86.03521599 91.24491266 83.79296875 88.8046875 C83.21015137 88.17546387 82.62733398 87.54624023 82.02685547 86.89794922 C81.41986816 86.23037598 80.81288086 85.56280273 80.1875 84.875 C79.55730957 84.19066895 78.92711914 83.50633789 78.27783203 82.80126953 C74.73599366 78.94353995 71.24494737 75.04716109 67.828125 71.078125 C64.79704534 67.63253872 61.66173548 64.2831191 58.54248047 60.91748047 C55.50214317 57.63444709 52.48564451 54.33306497 49.5 51 C46.03509793 47.13337015 42.52677937 43.31002816 39 39.5 C24.88579464 24.23928137 24.88579464 24.23928137 21 19 C20.95364797 27.27546642 20.91811627 35.55087855 20.89637566 43.82644272 C20.88594096 47.66917254 20.87178755 51.5118135 20.84912109 55.35449219 C20.82738143 59.06328453 20.81542901 62.77199144 20.81024551 66.48084259 C20.80655177 67.89542231 20.7993388 69.30999739 20.78853989 70.72454071 C20.7740109 72.70661352 20.77318296 74.6887724 20.77294922 76.67089844 C20.76628738 78.36300446 20.76628738 78.36300446 20.75949097 80.08929443 C20.99978801 82.99743438 21.30055096 84.64146744 23 87 C26.54588501 88.29920746 26.54588501 88.29920746 30 89 C30 89.66 30 90.32 30 91 C22.08 91 14.16 91 6 91 C6 90.34 6 89.68 6 89 C7.423125 88.5978125 7.423125 88.5978125 8.875 88.1875 C12.25267273 87.25013412 12.25267273 87.25013412 14 84 C15.03162701 80.15588073 15.15349326 76.45272807 15.20874023 72.48486328 C15.22803085 71.18646515 15.24732147 69.88806702 15.26719666 68.55032349 C15.28200261 67.14033004 15.29577623 65.73032543 15.30859375 64.3203125 C15.31516558 63.6054858 15.3217374 62.8906591 15.32850838 62.15417099 C15.36100955 58.37249478 15.38548646 54.59084571 15.4050293 50.80908203 C15.42285302 47.68952386 15.45770087 44.57086783 15.50756836 41.45166016 C15.56790264 37.67213416 15.59852081 33.89344511 15.60820198 30.11346054 C15.61673158 28.67894602 15.63548842 27.24445241 15.6649456 25.810215 C16.06459034 16.61089912 16.06459034 16.61089912 12.12084961 8.66333008 C9.70050775 6.35845287 7.27034921 4.75392016 4.125 3.5625 C3.34382813 3.25441406 2.56265625 2.94632813 1.7578125 2.62890625 C1.17773438 2.42136719 0.59765625 2.21382812 0 2 C0 1.34 0 0.68 0 0 Z " fill="#FFFEFE" transform="translate(304,17)"/>
<path d="M0 0 C25.41 0 50.82 0 77 0 C76.12268078 3.50927686 75.63196099 4.83475939 73.62109375 7.58984375 C72.87001343 8.62612915 72.87001343 8.62612915 72.10375977 9.68334961 C71.55389404 10.42721924 71.00402832 11.17108887 70.4375 11.9375 C69.86249756 12.72455322 69.28749512 13.51160645 68.69506836 14.32250977 C63.55853988 21.31963197 58.29459846 28.21938987 53.01538086 35.10913086 C48.03444012 41.6152503 43.15596954 48.18941861 38.31567383 54.80053711 C33.01925925 62.01575576 27.59767716 69.13305801 22.15234375 76.23632812 C21.50910156 77.07615234 20.86585937 77.91597656 20.203125 78.78125 C19.63239258 79.52439453 19.06166016 80.26753906 18.47363281 81.03320312 C17.2622123 82.65003607 16.12067129 84.31899306 15 86 C21.8317953 86.07634871 28.66347968 86.12872499 35.49560547 86.16479492 C37.8175874 86.17983911 40.13954112 86.20027945 42.46142578 86.22631836 C45.80768823 86.26289345 49.15357344 86.27977054 52.5 86.29296875 C54.04578735 86.31619453 54.04578735 86.31619453 55.62280273 86.33988953 C61.79742271 86.3413166 66.39593652 85.65731452 72 83 C73.86627054 81.06415172 73.86627054 81.06415172 74.875 78.8125 C75.54145151 77.51921123 76.23979006 76.24049761 77 75 C77.66 75 78.32 75 79 75 C78.44226441 81.24663864 77.35930891 84.70850958 75 91 C49.92 91 24.84 91 -1 91 C-0.02805013 87.11220052 0.75458566 85.69799912 3.140625 82.6484375 C3.79224609 81.80667969 4.44386719 80.96492188 5.11523438 80.09765625 C5.81970703 79.19917969 6.52417969 78.30070312 7.25 77.375 C8.72581992 75.46758474 10.19975214 73.55870755 11.671875 71.6484375 C12.40728516 70.69420898 13.14269531 69.73998047 13.90039062 68.75683594 C16.84395512 64.89186731 19.68031133 60.95578767 22.5 57 C27.84110831 49.52844493 33.37165569 42.21611214 38.95751953 34.92626953 C43.65650766 28.78581811 48.29119688 22.60190642 52.875 16.375 C53.75853149 15.17532593 53.75853149 15.17532593 54.65991211 13.95141602 C56.8289203 10.99683859 58.9664063 8.05039056 61 5 C54.13126731 5.09249228 47.26288038 5.19982689 40.39453125 5.31738281 C38.05897252 5.35561754 35.723356 5.39047995 33.38769531 5.421875 C30.02648295 5.4676447 26.66566645 5.52562036 23.3046875 5.5859375 C21.74341629 5.60326431 21.74341629 5.60326431 20.15060425 5.62094116 C15.11642362 5.72295148 10.64754699 5.82378672 6 8 C4.75619766 10.10343896 4.75619766 10.10343896 4.3125 12.5625 C3.73828125 15.00390625 3.73828125 15.00390625 3 17 C2.01 17.33 1.02 17.66 0 18 C0 12.06 0 6.12 0 0 Z " fill="#FFFEFE" transform="translate(5,17)"/>
<path d="M0 0 C2.05078125 0.03255208 4.1015625 0.06510417 6.15234375 0.09765625 C6.47608475 1.02249565 6.47608475 1.02249565 6.80636597 1.96601868 C18.77812235 36.31118011 18.77812235 36.31118011 31.08984375 70.53515625 C31.45899902 71.55327393 31.8281543 72.5713916 32.20849609 73.62036133 C34.11545271 78.75977605 36.10813652 83.52219448 39.15234375 88.09765625 C42.24991292 89.6057016 42.24991292 89.6057016 45.15234375 90.09765625 C45.15234375 90.75765625 45.15234375 91.41765625 45.15234375 92.09765625 C34.92234375 92.09765625 24.69234375 92.09765625 14.15234375 92.09765625 C14.15234375 91.43765625 14.15234375 90.77765625 14.15234375 90.09765625 C16.203125 89.86979167 18.25390625 89.64192708 20.3046875 89.4140625 C22.16374604 89.27879011 22.16374604 89.27879011 23.15234375 88.09765625 C22.72834887 81.41395506 20.81088603 75.57004619 18.58984375 69.28515625 C17.93865579 67.42589357 17.29133674 65.56527001 16.6484375 63.703125 C16.36154053 62.88996826 16.07464355 62.07681152 15.77905273 61.23901367 C15.15234375 59.09765625 15.15234375 59.09765625 15.15234375 56.09765625 C4.59234375 56.09765625 -5.96765625 56.09765625 -16.84765625 56.09765625 C-17.50765625 59.06765625 -18.16765625 62.03765625 -18.84765625 65.09765625 C-19.68917515 67.62986312 -20.56289377 70.15165911 -21.47265625 72.66015625 C-23.33992169 77.97949785 -24.42390098 82.45045791 -23.84765625 88.09765625 C-21.86765625 88.75765625 -19.88765625 89.41765625 -17.84765625 90.09765625 C-17.84765625 90.75765625 -17.84765625 91.41765625 -17.84765625 92.09765625 C-25.10765625 92.09765625 -32.36765625 92.09765625 -39.84765625 92.09765625 C-39.84765625 91.43765625 -39.84765625 90.77765625 -39.84765625 90.09765625 C-38.51734375 89.60265625 -38.51734375 89.60265625 -37.16015625 89.09765625 C-27.99463914 83.56375913 -25.82849301 70.90128964 -22.70703125 61.2890625 C-22.1346568 59.55377923 -21.56125566 57.81883431 -20.98687744 56.08421326 C-19.48544163 51.54204183 -17.99616962 46.99598062 -16.51000977 42.4487915 C-14.12061052 35.1455227 -11.7119963 27.84856422 -9.30457306 20.55122185 C-8.46517542 18.00130284 -7.63058724 15.4498494 -6.79681396 12.89808655 C-6.28746971 11.34682783 -5.77805394 9.79559259 -5.26855469 8.24438477 C-5.03688599 7.5311908 -4.80521729 6.81799683 -4.56652832 6.08319092 C-2.60732974 0.13780813 -2.60732974 0.13780813 0 0 Z M-1.84765625 11.09765625 C-3.54245957 15.98922375 -5.23300726 20.88223356 -6.91967773 25.77661133 C-7.49371315 27.44042342 -8.06889676 29.10383984 -8.64526367 30.7668457 C-9.4748884 33.16123285 -10.30033443 35.55702601 -11.125 37.953125 C-11.38232407 38.69290085 -11.63964813 39.4326767 -11.9047699 40.19487 C-13.1568391 43.84591818 -14.08710631 47.29490657 -14.84765625 51.09765625 C-5.93765625 51.09765625 2.97234375 51.09765625 12.15234375 51.09765625 C9.61860591 41.79768927 9.61860591 41.79768927 6.671875 32.6796875 C6.34530159 31.73750618 6.34530159 31.73750618 6.01213074 30.77629089 C5.3330979 28.81971133 4.64909463 26.86491621 3.96484375 24.91015625 C3.49641006 23.56326741 3.02830898 22.21626284 2.56054688 20.86914062 C1.42830013 17.61063967 0.29159689 14.35371523 -0.84765625 11.09765625 C-1.17765625 11.09765625 -1.50765625 11.09765625 -1.84765625 11.09765625 Z " fill="#FFFEFE" transform="translate(257.84765625,15.90234375)"/>
<path d="M0 0 C9.9 0 19.8 0 30 0 C30 0.66 30 1.32 30 2 C28.88625 2.433125 27.7725 2.86625 26.625 3.3125 C22.82487666 4.69911119 22.82487666 4.69911119 21 8 C20.70077623 11.31080936 20.70077623 11.31080936 20.75708008 15.16186523 C20.75518173 15.88739594 20.75328339 16.61292664 20.75132751 17.36044312 C20.74762149 19.75993643 20.75832265 22.1591273 20.76953125 24.55859375 C20.77072344 26.2262417 20.77117613 27.89389034 20.7709198 29.5615387 C20.77248445 33.05775147 20.78077176 36.55386182 20.79418945 40.05004883 C20.81116606 44.53024528 20.81500411 49.01032901 20.81424427 53.49055386 C20.81451633 56.9349322 20.82000349 60.37928593 20.82724571 63.82365608 C20.83042679 65.47546261 20.83239848 67.12727192 20.83313942 68.77908134 C20.83530967 71.08901583 20.84406911 73.39883135 20.85473633 75.70874023 C20.85854813 77.02317612 20.86235992 78.337612 20.86628723 79.69187927 C20.89392098 83.15129544 20.89392098 83.15129544 22 87 C24.64 87.66 27.28 88.32 30 89 C30 89.66 30 90.32 30 91 C20.1 91 10.2 91 0 91 C0 90.34 0 89.68 0 89 C0.94875 88.71125 1.8975 88.4225 2.875 88.125 C6.05211578 87.23174891 6.05211578 87.23174891 8 85 C9.27808797 81.47036842 9.13360737 77.93552466 9.14526367 74.21533203 C9.14862228 73.54163574 9.1519809 72.86793945 9.15544128 72.17382812 C9.16492212 69.95180404 9.16689297 67.72985554 9.16796875 65.5078125 C9.1711834 63.95848561 9.17454763 62.40915902 9.17805481 60.85983276 C9.18403895 57.61341651 9.18589545 54.36702685 9.18530273 51.12060547 C9.18520117 46.96904625 9.19885066 42.81765827 9.21607494 38.6661396 C9.22721596 35.46616845 9.22922129 32.26623841 9.22869301 29.06624985 C9.22987006 27.53610519 9.23427636 26.00595938 9.24202538 24.47583389 C9.25186757 22.33158771 9.24893074 20.18770966 9.24291992 18.04345703 C9.24434494 16.82530304 9.24576996 15.60714905 9.24723816 14.3520813 C8.99261402 10.89986013 8.32243159 8.19183683 7 5 C5.33900889 3.67513289 5.33900889 3.67513289 3.375 3.125 C2.26125 2.75375 1.1475 2.3825 0 2 C0 1.34 0 0.68 0 0 Z " fill="#FFFEFE" transform="translate(90,17)"/>
<path d="M0 0 C3.5625 0.3125 3.5625 0.3125 5.5625 1.375 C7.19628851 4.54046524 6.41517564 6.96270286 5.5625 10.3125 C2.5625 12.3125 2.5625 12.3125 -1 12.1875 C-4.4375 11.3125 -4.4375 11.3125 -5.9375 9.5625 C-6.55461912 6.78546397 -6.29133055 5.01629676 -5.4375 2.3125 C-3.4375 0.3125 -3.4375 0.3125 0 0 Z " fill="#FFFEFE" transform="translate(552.4375,98.6875)"/>
</svg>
